<mxfile host="Electron" modified="2024-02-17T08:00:48.894Z" agent="Mozilla/5.0 (Windows NT 10.0; Win64; x64) AppleWebKit/537.36 (KHTML, like Gecko) draw.io/23.0.2 Chrome/120.0.6099.109 Electron/28.1.0 Safari/537.36" etag="-1rwgR3ia2jZU9NMQwtA" version="23.0.2" type="device">
  <diagram id="R2lEEEUBdFMjLlhIrx00" name="Page-1">
    <mxGraphModel dx="536" dy="709" grid="1" gridSize="10" guides="1" tooltips="1" connect="1" arrows="1" fold="1" page="1" pageScale="1" pageWidth="827" pageHeight="1169" math="0" shadow="0" extFonts="Permanent Marker^https://fonts.googleapis.com/css?family=Permanent+Marker">
      <root>
        <mxCell id="0" />
        <mxCell id="1" parent="0" />
        <mxCell id="UTMJsMPESid8Jv--px6_-1" value="Обобщённая доменна модель №3 (разбиение по бизнес возможностям)" style="swimlane;whiteSpace=wrap;html=1;" parent="1" vertex="1">
          <mxGeometry x="40" y="40" width="760" height="1080" as="geometry">
            <mxRectangle x="40" y="40" width="240" height="30" as="alternateBounds" />
          </mxGeometry>
        </mxCell>
        <mxCell id="H_RzWrDMf-Ns0h6KsaO8-17" value="Бизнес возиожности" style="swimlane;whiteSpace=wrap;html=1;" parent="UTMJsMPESid8Jv--px6_-1" vertex="1">
          <mxGeometry x="40" y="50" width="280" height="1020" as="geometry" />
        </mxCell>
        <mxCell id="UTMJsMPESid8Jv--px6_-22" value="Управление СЗ и ШС" style="swimlane;horizontal=0;whiteSpace=wrap;html=1;" parent="H_RzWrDMf-Ns0h6KsaO8-17" vertex="1">
          <mxGeometry x="5" y="40" width="240" height="240" as="geometry">
            <mxRectangle x="40" y="60" width="40" height="80" as="alternateBounds" />
          </mxGeometry>
        </mxCell>
        <mxCell id="H_RzWrDMf-Ns0h6KsaO8-2" value="Мобильные приложения СЗ и ДМ" style="rounded=0;whiteSpace=wrap;html=1;" parent="UTMJsMPESid8Jv--px6_-22" vertex="1">
          <mxGeometry x="44" y="71" width="173.22799999999998" height="39.37" as="geometry" />
        </mxCell>
        <mxCell id="H_RzWrDMf-Ns0h6KsaO8-3" value="Портал Аутсорсинга (ПА)" style="rounded=0;whiteSpace=wrap;html=1;" parent="UTMJsMPESid8Jv--px6_-22" vertex="1">
          <mxGeometry x="44" y="15" width="173.22799999999998" height="39.37" as="geometry" />
        </mxCell>
        <mxCell id="H_RzWrDMf-Ns0h6KsaO8-4" value="Исполнители (СЗ + ШС)" style="rounded=0;whiteSpace=wrap;html=1;" parent="UTMJsMPESid8Jv--px6_-22" vertex="1">
          <mxGeometry x="44" y="127" width="173.22799999999998" height="39.37" as="geometry" />
        </mxCell>
        <mxCell id="H_RzWrDMf-Ns0h6KsaO8-14" value="Система Адресов и Геолокации" style="rounded=0;whiteSpace=wrap;html=1;" parent="UTMJsMPESid8Jv--px6_-22" vertex="1">
          <mxGeometry x="44" y="183" width="173.22799999999998" height="39.37" as="geometry" />
        </mxCell>
        <mxCell id="UTMJsMPESid8Jv--px6_-23" value="Управление заказчиками" style="swimlane;horizontal=0;whiteSpace=wrap;html=1;" parent="H_RzWrDMf-Ns0h6KsaO8-17" vertex="1">
          <mxGeometry x="5" y="300.5" width="240" height="175.5" as="geometry">
            <mxRectangle x="40" y="320" width="40" height="80" as="alternateBounds" />
          </mxGeometry>
        </mxCell>
        <mxCell id="UTMJsMPESid8Jv--px6_-27" value="Управление сменами" style="rounded=0;whiteSpace=wrap;html=1;" parent="UTMJsMPESid8Jv--px6_-23" vertex="1">
          <mxGeometry x="42" y="69.5" width="173.22799999999998" height="39.37" as="geometry" />
        </mxCell>
        <mxCell id="UTMJsMPESid8Jv--px6_-28" value="Управление оргструктурой заказчика" style="rounded=0;whiteSpace=wrap;html=1;" parent="UTMJsMPESid8Jv--px6_-23" vertex="1">
          <mxGeometry x="42" y="14" width="173.22799999999998" height="39.37" as="geometry" />
        </mxCell>
        <mxCell id="H_RzWrDMf-Ns0h6KsaO8-5" value="Управление табелями" style="rounded=0;whiteSpace=wrap;html=1;" parent="UTMJsMPESid8Jv--px6_-23" vertex="1">
          <mxGeometry x="42" y="125" width="173.22799999999998" height="39.37" as="geometry" />
        </mxCell>
        <mxCell id="H_RzWrDMf-Ns0h6KsaO8-6" value="Управление агентствами" style="swimlane;horizontal=0;whiteSpace=wrap;html=1;startSize=40;" parent="H_RzWrDMf-Ns0h6KsaO8-17" vertex="1">
          <mxGeometry x="5" y="500" width="240" height="90" as="geometry">
            <mxRectangle x="40" y="320" width="40" height="80" as="alternateBounds" />
          </mxGeometry>
        </mxCell>
        <mxCell id="H_RzWrDMf-Ns0h6KsaO8-8" value="Управление оргструктурой агентств" style="rounded=0;whiteSpace=wrap;html=1;" parent="H_RzWrDMf-Ns0h6KsaO8-6" vertex="1">
          <mxGeometry x="51" y="25" width="173.22799999999998" height="39.37" as="geometry" />
        </mxCell>
        <mxCell id="UTMJsMPESid8Jv--px6_-54" value="Система планирования" style="swimlane;horizontal=0;whiteSpace=wrap;html=1;startSize=40;" parent="H_RzWrDMf-Ns0h6KsaO8-17" vertex="1">
          <mxGeometry x="5" y="606" width="240" height="130" as="geometry">
            <mxRectangle x="40" y="320" width="40" height="80" as="alternateBounds" />
          </mxGeometry>
        </mxCell>
        <mxCell id="UTMJsMPESid8Jv--px6_-61" value="Планирование&lt;br&gt;тактическое смен ШС, СЗ и аутсорсинга" style="rounded=0;whiteSpace=wrap;html=1;" parent="UTMJsMPESid8Jv--px6_-54" vertex="1">
          <mxGeometry x="51" y="70" width="173.22799999999998" height="39.37" as="geometry" />
        </mxCell>
        <mxCell id="UTMJsMPESid8Jv--px6_-62" value="Планирование&lt;br&gt;стратегическое смен ШС, СЗ и аутсорсинга" style="rounded=0;whiteSpace=wrap;html=1;" parent="UTMJsMPESid8Jv--px6_-54" vertex="1">
          <mxGeometry x="51" y="15" width="173.22799999999998" height="39.37" as="geometry" />
        </mxCell>
        <mxCell id="H_RzWrDMf-Ns0h6KsaO8-15" value="Управление информиро- ванием" style="swimlane;horizontal=0;whiteSpace=wrap;html=1;startSize=50;" parent="H_RzWrDMf-Ns0h6KsaO8-17" vertex="1">
          <mxGeometry x="5" y="756" width="240" height="90" as="geometry">
            <mxRectangle x="40" y="320" width="40" height="80" as="alternateBounds" />
          </mxGeometry>
        </mxCell>
        <mxCell id="UTMJsMPESid8Jv--px6_-67" value="Система Информирования (СИ) push, sms, email, bot" style="rounded=0;whiteSpace=wrap;html=1;" parent="H_RzWrDMf-Ns0h6KsaO8-15" vertex="1">
          <mxGeometry x="58" y="22.5" width="173.22799999999998" height="39.37" as="geometry" />
        </mxCell>
        <mxCell id="H_RzWrDMf-Ns0h6KsaO8-10" value="Бухгалтерия" style="swimlane;horizontal=0;whiteSpace=wrap;html=1;" parent="H_RzWrDMf-Ns0h6KsaO8-17" vertex="1">
          <mxGeometry x="5" y="876" width="240" height="120" as="geometry">
            <mxRectangle x="40" y="320" width="40" height="80" as="alternateBounds" />
          </mxGeometry>
        </mxCell>
        <mxCell id="H_RzWrDMf-Ns0h6KsaO8-11" value="Управление оплатами агентств" style="rounded=0;whiteSpace=wrap;html=1;" parent="H_RzWrDMf-Ns0h6KsaO8-10" vertex="1">
          <mxGeometry x="47" y="64" width="173.22799999999998" height="39.37" as="geometry" />
        </mxCell>
        <mxCell id="H_RzWrDMf-Ns0h6KsaO8-12" value="Управление оплатами заказчиков" style="rounded=0;whiteSpace=wrap;html=1;" parent="H_RzWrDMf-Ns0h6KsaO8-10" vertex="1">
          <mxGeometry x="47" y="11" width="173.22799999999998" height="39.37" as="geometry" />
        </mxCell>
        <mxCell id="H_RzWrDMf-Ns0h6KsaO8-18" value="Сервисы" style="swimlane;whiteSpace=wrap;html=1;" parent="1" vertex="1">
          <mxGeometry x="399" y="90" width="340" height="1020" as="geometry" />
        </mxCell>
        <mxCell id="H_RzWrDMf-Ns0h6KsaO8-19" value="Executors&lt;br&gt;сервис управления профилями и статусами СЗ и ШС" style="rounded=0;whiteSpace=wrap;html=1;" parent="H_RzWrDMf-Ns0h6KsaO8-18" vertex="1">
          <mxGeometry x="41" y="71.63" width="239" height="48.37" as="geometry" />
        </mxCell>
        <mxCell id="H_RzWrDMf-Ns0h6KsaO8-20" value="Location&lt;br&gt;сервис подбора мест для подработки" style="rounded=0;whiteSpace=wrap;html=1;" parent="H_RzWrDMf-Ns0h6KsaO8-18" vertex="1">
          <mxGeometry x="41" y="150.37" width="239" height="48.37" as="geometry" />
        </mxCell>
        <mxCell id="H_RzWrDMf-Ns0h6KsaO8-21" value="Customer" style="rounded=0;whiteSpace=wrap;html=1;" parent="H_RzWrDMf-Ns0h6KsaO8-18" vertex="1">
          <mxGeometry x="41" y="360" width="239" height="48.37" as="geometry" />
        </mxCell>
        <mxCell id="H_RzWrDMf-Ns0h6KsaO8-23" value="Agency" style="rounded=0;whiteSpace=wrap;html=1;" parent="H_RzWrDMf-Ns0h6KsaO8-18" vertex="1">
          <mxGeometry x="41" y="530" width="239" height="48.37" as="geometry" />
        </mxCell>
        <mxCell id="H_RzWrDMf-Ns0h6KsaO8-24" value="Planning" style="rounded=0;whiteSpace=wrap;html=1;" parent="H_RzWrDMf-Ns0h6KsaO8-18" vertex="1">
          <mxGeometry x="41" y="650" width="239" height="48.37" as="geometry" />
        </mxCell>
        <mxCell id="H_RzWrDMf-Ns0h6KsaO8-25" value="Informing" style="rounded=0;whiteSpace=wrap;html=1;" parent="H_RzWrDMf-Ns0h6KsaO8-18" vertex="1">
          <mxGeometry x="41" y="780" width="239" height="48.37" as="geometry" />
        </mxCell>
        <mxCell id="H_RzWrDMf-Ns0h6KsaO8-26" value="Accounting" style="rounded=0;whiteSpace=wrap;html=1;" parent="H_RzWrDMf-Ns0h6KsaO8-18" vertex="1">
          <mxGeometry x="41" y="910" width="239" height="48.37" as="geometry" />
        </mxCell>
      </root>
    </mxGraphModel>
  </diagram>
</mxfile>
